<svg xmlns="http://www.w3.org/2000/svg" width="700" height="420" viewBox="0 0 700 420"><style>text{font-family:ui-sans-serif,system-ui,"Segoe UI",Roboto,sans-serif}.h{font-size:15px;font-weight:600;fill:#1a1a18}.t{font-size:13px;fill:#3d3d3a}.n{font-size:12px;font-weight:600;fill:#1a1a18}</style><rect x="0" y="0" width="700" height="420" fill="#ffffff"/><rect x="40" y="60" width="286" height="308" rx="4" fill="#e9dcc2" stroke="#9c8a63"/><circle cx="51.0" cy="71.0" r="3" fill="#c9a86a" stroke="#8a6f3c" stroke-width="0.8"/><circle cx="51.0" cy="93.0" r="3" fill="#c9a86a" stroke="#8a6f3c" stroke-width="0.8"/><circle cx="51.0" cy="115.0" r="3" fill="#c9a86a" stroke="#8a6f3c" stroke-width="0.8"/><circle cx="51.0" cy="137.0" r="3" fill="#c9a86a" stroke="#8a6f3c" stroke-width="0.8"/><circle cx="51.0" cy="159.0" r="3" fill="#c9a86a" stroke="#8a6f3c" stroke-width="0.8"/><circle cx="51.0" cy="181.0" r="3" fill="#c9a86a" stroke="#8a6f3c" stroke-width="0.8"/><circle cx="51.0" cy="203.0" r="3" fill="#c9a86a" stroke="#8a6f3c" stroke-width="0.8"/><circle cx="51.0" cy="225.0" r="3" fill="#c9a86a" stroke="#8a6f3c" stroke-width="0.8"/><circle cx="51.0" cy="247.0" r="3" fill="#c9a86a" stroke="#8a6f3c" stroke-width="0.8"/><circle cx="51.0" cy="269.0" r="3" fill="#c9a86a" stroke="#8a6f3c" stroke-width="0.8"/><circle cx="51.0" cy="291.0" r="3" fill="#c9a86a" stroke="#8a6f3c" stroke-width="0.8"/><circle cx="51.0" cy="313.0" r="3" fill="#c9a86a" stroke="#8a6f3c" stroke-width="0.8"/><circle cx="51.0" cy="335.0" r="3" fill="#c9a86a" stroke="#8a6f3c" stroke-width="0.8"/><circle cx="51.0" cy="357.0" r="3" fill="#c9a86a" stroke="#8a6f3c" stroke-width="0.8"/><circle cx="73.0" cy="71.0" r="3" fill="#c9a86a" stroke="#8a6f3c" stroke-width="0.8"/><circle cx="73.0" cy="93.0" r="3" fill="#c9a86a" stroke="#8a6f3c" stroke-width="0.8"/><circle cx="73.0" cy="115.0" r="3" fill="#c9a86a" stroke="#8a6f3c" stroke-width="0.8"/><circle cx="73.0" cy="137.0" r="3" fill="#c9a86a" stroke="#8a6f3c" stroke-width="0.8"/><circle cx="73.0" cy="159.0" r="3" fill="#c9a86a" stroke="#8a6f3c" stroke-width="0.8"/><circle cx="73.0" cy="181.0" r="3" fill="#c9a86a" stroke="#8a6f3c" stroke-width="0.8"/><circle cx="73.0" cy="203.0" r="3" fill="#c9a86a" stroke="#8a6f3c" stroke-width="0.8"/><circle cx="73.0" cy="225.0" r="3" fill="#c9a86a" stroke="#8a6f3c" stroke-width="0.8"/><circle cx="73.0" cy="247.0" r="3" fill="#c9a86a" stroke="#8a6f3c" stroke-width="0.8"/><circle cx="73.0" cy="269.0" r="3" fill="#c9a86a" stroke="#8a6f3c" stroke-width="0.8"/><circle cx="73.0" cy="291.0" r="3" fill="#c9a86a" stroke="#8a6f3c" stroke-width="0.8"/><circle cx="73.0" cy="313.0" r="3" fill="#c9a86a" stroke="#8a6f3c" stroke-width="0.8"/><circle cx="73.0" cy="335.0" r="3" fill="#c9a86a" stroke="#8a6f3c" stroke-width="0.8"/><circle cx="73.0" cy="357.0" r="3" fill="#c9a86a" stroke="#8a6f3c" stroke-width="0.8"/><circle cx="95.0" cy="71.0" r="3" fill="#c9a86a" stroke="#8a6f3c" stroke-width="0.8"/><circle cx="95.0" cy="93.0" r="3" fill="#c9a86a" stroke="#8a6f3c" stroke-width="0.8"/><circle cx="95.0" cy="115.0" r="3" fill="#c9a86a" stroke="#8a6f3c" stroke-width="0.8"/><circle cx="95.0" cy="137.0" r="3" fill="#c9a86a" stroke="#8a6f3c" stroke-width="0.8"/><circle cx="95.0" cy="159.0" r="3" fill="#c9a86a" stroke="#8a6f3c" stroke-width="0.8"/><circle cx="95.0" cy="181.0" r="3" fill="#c9a86a" stroke="#8a6f3c" stroke-width="0.8"/><circle cx="95.0" cy="203.0" r="3" fill="#c9a86a" stroke="#8a6f3c" stroke-width="0.8"/><circle cx="95.0" cy="225.0" r="3" fill="#c9a86a" stroke="#8a6f3c" stroke-width="0.8"/><circle cx="95.0" cy="247.0" r="3" fill="#c9a86a" stroke="#8a6f3c" stroke-width="0.8"/><circle cx="95.0" cy="269.0" r="3" fill="#c9a86a" stroke="#8a6f3c" stroke-width="0.8"/><circle cx="95.0" cy="291.0" r="3" fill="#c9a86a" stroke="#8a6f3c" stroke-width="0.8"/><circle cx="95.0" cy="313.0" r="3" fill="#c9a86a" stroke="#8a6f3c" stroke-width="0.8"/><circle cx="95.0" cy="335.0" r="3" fill="#c9a86a" stroke="#8a6f3c" stroke-width="0.8"/><circle cx="95.0" cy="357.0" r="3" fill="#c9a86a" stroke="#8a6f3c" stroke-width="0.8"/><circle cx="117.0" cy="71.0" r="3" fill="#c9a86a" stroke="#8a6f3c" stroke-width="0.8"/><circle cx="117.0" cy="93.0" r="3" fill="#c9a86a" stroke="#8a6f3c" stroke-width="0.8"/><circle cx="117.0" cy="115.0" r="3" fill="#c9a86a" stroke="#8a6f3c" stroke-width="0.8"/><circle cx="117.0" cy="137.0" r="3" fill="#c9a86a" stroke="#8a6f3c" stroke-width="0.8"/><circle cx="117.0" cy="159.0" r="3" fill="#c9a86a" stroke="#8a6f3c" stroke-width="0.8"/><circle cx="117.0" cy="181.0" r="3" fill="#c9a86a" stroke="#8a6f3c" stroke-width="0.8"/><circle cx="117.0" cy="203.0" r="3" fill="#c9a86a" stroke="#8a6f3c" stroke-width="0.8"/><circle cx="117.0" cy="225.0" r="3" fill="#c9a86a" stroke="#8a6f3c" stroke-width="0.8"/><circle cx="117.0" cy="247.0" r="3" fill="#c9a86a" stroke="#8a6f3c" stroke-width="0.8"/><circle cx="117.0" cy="269.0" r="3" fill="#c9a86a" stroke="#8a6f3c" stroke-width="0.8"/><circle cx="117.0" cy="291.0" r="3" fill="#c9a86a" stroke="#8a6f3c" stroke-width="0.8"/><circle cx="117.0" cy="313.0" r="3" fill="#c9a86a" stroke="#8a6f3c" stroke-width="0.8"/><circle cx="117.0" cy="335.0" r="3" fill="#c9a86a" stroke="#8a6f3c" stroke-width="0.8"/><circle cx="117.0" cy="357.0" r="3" fill="#c9a86a" stroke="#8a6f3c" stroke-width="0.8"/><circle cx="139.0" cy="71.0" r="3" fill="#c9a86a" stroke="#8a6f3c" stroke-width="0.8"/><circle cx="139.0" cy="93.0" r="3" fill="#c9a86a" stroke="#8a6f3c" stroke-width="0.8"/><circle cx="139.0" cy="115.0" r="3" fill="#c9a86a" stroke="#8a6f3c" stroke-width="0.8"/><circle cx="139.0" cy="137.0" r="3" fill="#c9a86a" stroke="#8a6f3c" stroke-width="0.8"/><circle cx="139.0" cy="159.0" r="3" fill="#c9a86a" stroke="#8a6f3c" stroke-width="0.8"/><circle cx="139.0" cy="181.0" r="3" fill="#c9a86a" stroke="#8a6f3c" stroke-width="0.8"/><circle cx="139.0" cy="203.0" r="3" fill="#c9a86a" stroke="#8a6f3c" stroke-width="0.8"/><circle cx="139.0" cy="225.0" r="3" fill="#c9a86a" stroke="#8a6f3c" stroke-width="0.8"/><circle cx="139.0" cy="247.0" r="3" fill="#c9a86a" stroke="#8a6f3c" stroke-width="0.8"/><circle cx="139.0" cy="269.0" r="3" fill="#c9a86a" stroke="#8a6f3c" stroke-width="0.8"/><circle cx="139.0" cy="291.0" r="3" fill="#c9a86a" stroke="#8a6f3c" stroke-width="0.8"/><circle cx="139.0" cy="313.0" r="3" fill="#c9a86a" stroke="#8a6f3c" stroke-width="0.8"/><circle cx="139.0" cy="335.0" r="3" fill="#c9a86a" stroke="#8a6f3c" stroke-width="0.8"/><circle cx="139.0" cy="357.0" r="3" fill="#c9a86a" stroke="#8a6f3c" stroke-width="0.8"/><circle cx="161.0" cy="71.0" r="3" fill="#c9a86a" stroke="#8a6f3c" stroke-width="0.8"/><circle cx="161.0" cy="93.0" r="3" fill="#c9a86a" stroke="#8a6f3c" stroke-width="0.8"/><circle cx="161.0" cy="115.0" r="3" fill="#c9a86a" stroke="#8a6f3c" stroke-width="0.8"/><circle cx="161.0" cy="137.0" r="3" fill="#c9a86a" stroke="#8a6f3c" stroke-width="0.8"/><circle cx="161.0" cy="159.0" r="3" fill="#c9a86a" stroke="#8a6f3c" stroke-width="0.8"/><circle cx="161.0" cy="181.0" r="3" fill="#c9a86a" stroke="#8a6f3c" stroke-width="0.8"/><circle cx="161.0" cy="203.0" r="3" fill="#c9a86a" stroke="#8a6f3c" stroke-width="0.8"/><circle cx="161.0" cy="225.0" r="3" fill="#c9a86a" stroke="#8a6f3c" stroke-width="0.8"/><circle cx="161.0" cy="247.0" r="3" fill="#c9a86a" stroke="#8a6f3c" stroke-width="0.8"/><circle cx="161.0" cy="269.0" r="3" fill="#c9a86a" stroke="#8a6f3c" stroke-width="0.8"/><circle cx="161.0" cy="291.0" r="3" fill="#c9a86a" stroke="#8a6f3c" stroke-width="0.8"/><circle cx="161.0" cy="313.0" r="3" fill="#c9a86a" stroke="#8a6f3c" stroke-width="0.8"/><circle cx="161.0" cy="335.0" r="3" fill="#c9a86a" stroke="#8a6f3c" stroke-width="0.8"/><circle cx="161.0" cy="357.0" r="3" fill="#c9a86a" stroke="#8a6f3c" stroke-width="0.8"/><circle cx="183.0" cy="71.0" r="3" fill="#c9a86a" stroke="#8a6f3c" stroke-width="0.8"/><circle cx="183.0" cy="93.0" r="3" fill="#c9a86a" stroke="#8a6f3c" stroke-width="0.8"/><circle cx="183.0" cy="115.0" r="3" fill="#c9a86a" stroke="#8a6f3c" stroke-width="0.8"/><circle cx="183.0" cy="137.0" r="3" fill="#c9a86a" stroke="#8a6f3c" stroke-width="0.8"/><circle cx="183.0" cy="159.0" r="3" fill="#c9a86a" stroke="#8a6f3c" stroke-width="0.8"/><circle cx="183.0" cy="181.0" r="3" fill="#c9a86a" stroke="#8a6f3c" stroke-width="0.8"/><circle cx="183.0" cy="203.0" r="3" fill="#c9a86a" stroke="#8a6f3c" stroke-width="0.8"/><circle cx="183.0" cy="225.0" r="3" fill="#c9a86a" stroke="#8a6f3c" stroke-width="0.8"/><circle cx="183.0" cy="247.0" r="3" fill="#c9a86a" stroke="#8a6f3c" stroke-width="0.8"/><circle cx="183.0" cy="269.0" r="3" fill="#c9a86a" stroke="#8a6f3c" stroke-width="0.8"/><circle cx="183.0" cy="291.0" r="3" fill="#c9a86a" stroke="#8a6f3c" stroke-width="0.8"/><circle cx="183.0" cy="313.0" r="3" fill="#c9a86a" stroke="#8a6f3c" stroke-width="0.8"/><circle cx="183.0" cy="335.0" r="3" fill="#c9a86a" stroke="#8a6f3c" stroke-width="0.8"/><circle cx="183.0" cy="357.0" r="3" fill="#c9a86a" stroke="#8a6f3c" stroke-width="0.8"/><circle cx="205.0" cy="71.0" r="3" fill="#c9a86a" stroke="#8a6f3c" stroke-width="0.8"/><circle cx="205.0" cy="93.0" r="3" fill="#c9a86a" stroke="#8a6f3c" stroke-width="0.8"/><circle cx="205.0" cy="115.0" r="3" fill="#c9a86a" stroke="#8a6f3c" stroke-width="0.8"/><circle cx="205.0" cy="137.0" r="3" fill="#c9a86a" stroke="#8a6f3c" stroke-width="0.8"/><circle cx="205.0" cy="159.0" r="3" fill="#c9a86a" stroke="#8a6f3c" stroke-width="0.8"/><circle cx="205.0" cy="181.0" r="3" fill="#c9a86a" stroke="#8a6f3c" stroke-width="0.8"/><circle cx="205.0" cy="203.0" r="3" fill="#c9a86a" stroke="#8a6f3c" stroke-width="0.8"/><circle cx="205.0" cy="225.0" r="3" fill="#c9a86a" stroke="#8a6f3c" stroke-width="0.8"/><circle cx="205.0" cy="247.0" r="3" fill="#c9a86a" stroke="#8a6f3c" stroke-width="0.8"/><circle cx="205.0" cy="269.0" r="3" fill="#c9a86a" stroke="#8a6f3c" stroke-width="0.8"/><circle cx="205.0" cy="291.0" r="3" fill="#c9a86a" stroke="#8a6f3c" stroke-width="0.8"/><circle cx="205.0" cy="313.0" r="3" fill="#c9a86a" stroke="#8a6f3c" stroke-width="0.8"/><circle cx="205.0" cy="335.0" r="3" fill="#c9a86a" stroke="#8a6f3c" stroke-width="0.8"/><circle cx="205.0" cy="357.0" r="3" fill="#c9a86a" stroke="#8a6f3c" stroke-width="0.8"/><circle cx="227.0" cy="71.0" r="3" fill="#c9a86a" stroke="#8a6f3c" stroke-width="0.8"/><circle cx="227.0" cy="93.0" r="3" fill="#c9a86a" stroke="#8a6f3c" stroke-width="0.8"/><circle cx="227.0" cy="115.0" r="3" fill="#c9a86a" stroke="#8a6f3c" stroke-width="0.8"/><circle cx="227.0" cy="137.0" r="3" fill="#c9a86a" stroke="#8a6f3c" stroke-width="0.8"/><circle cx="227.0" cy="159.0" r="3" fill="#c9a86a" stroke="#8a6f3c" stroke-width="0.8"/><circle cx="227.0" cy="181.0" r="3" fill="#c9a86a" stroke="#8a6f3c" stroke-width="0.8"/><circle cx="227.0" cy="203.0" r="3" fill="#c9a86a" stroke="#8a6f3c" stroke-width="0.8"/><circle cx="227.0" cy="225.0" r="3" fill="#c9a86a" stroke="#8a6f3c" stroke-width="0.8"/><circle cx="227.0" cy="247.0" r="3" fill="#c9a86a" stroke="#8a6f3c" stroke-width="0.8"/><circle cx="227.0" cy="269.0" r="3" fill="#c9a86a" stroke="#8a6f3c" stroke-width="0.8"/><circle cx="227.0" cy="291.0" r="3" fill="#c9a86a" stroke="#8a6f3c" stroke-width="0.8"/><circle cx="227.0" cy="313.0" r="3" fill="#c9a86a" stroke="#8a6f3c" stroke-width="0.8"/><circle cx="227.0" cy="335.0" r="3" fill="#c9a86a" stroke="#8a6f3c" stroke-width="0.8"/><circle cx="227.0" cy="357.0" r="3" fill="#c9a86a" stroke="#8a6f3c" stroke-width="0.8"/><circle cx="249.0" cy="71.0" r="3" fill="#c9a86a" stroke="#8a6f3c" stroke-width="0.8"/><circle cx="249.0" cy="93.0" r="3" fill="#c9a86a" stroke="#8a6f3c" stroke-width="0.8"/><circle cx="249.0" cy="115.0" r="3" fill="#c9a86a" stroke="#8a6f3c" stroke-width="0.8"/><circle cx="249.0" cy="137.0" r="3" fill="#c9a86a" stroke="#8a6f3c" stroke-width="0.8"/><circle cx="249.0" cy="159.0" r="3" fill="#c9a86a" stroke="#8a6f3c" stroke-width="0.8"/><circle cx="249.0" cy="181.0" r="3" fill="#c9a86a" stroke="#8a6f3c" stroke-width="0.8"/><circle cx="249.0" cy="203.0" r="3" fill="#c9a86a" stroke="#8a6f3c" stroke-width="0.8"/><circle cx="249.0" cy="225.0" r="3" fill="#c9a86a" stroke="#8a6f3c" stroke-width="0.8"/><circle cx="249.0" cy="247.0" r="3" fill="#c9a86a" stroke="#8a6f3c" stroke-width="0.8"/><circle cx="249.0" cy="269.0" r="3" fill="#c9a86a" stroke="#8a6f3c" stroke-width="0.8"/><circle cx="249.0" cy="291.0" r="3" fill="#c9a86a" stroke="#8a6f3c" stroke-width="0.8"/><circle cx="249.0" cy="313.0" r="3" fill="#c9a86a" stroke="#8a6f3c" stroke-width="0.8"/><circle cx="249.0" cy="335.0" r="3" fill="#c9a86a" stroke="#8a6f3c" stroke-width="0.8"/><circle cx="249.0" cy="357.0" r="3" fill="#c9a86a" stroke="#8a6f3c" stroke-width="0.8"/><circle cx="271.0" cy="71.0" r="3" fill="#c9a86a" stroke="#8a6f3c" stroke-width="0.8"/><circle cx="271.0" cy="93.0" r="3" fill="#c9a86a" stroke="#8a6f3c" stroke-width="0.8"/><circle cx="271.0" cy="115.0" r="3" fill="#c9a86a" stroke="#8a6f3c" stroke-width="0.8"/><circle cx="271.0" cy="137.0" r="3" fill="#c9a86a" stroke="#8a6f3c" stroke-width="0.8"/><circle cx="271.0" cy="159.0" r="3" fill="#c9a86a" stroke="#8a6f3c" stroke-width="0.8"/><circle cx="271.0" cy="181.0" r="3" fill="#c9a86a" stroke="#8a6f3c" stroke-width="0.8"/><circle cx="271.0" cy="203.0" r="3" fill="#c9a86a" stroke="#8a6f3c" stroke-width="0.8"/><circle cx="271.0" cy="225.0" r="3" fill="#c9a86a" stroke="#8a6f3c" stroke-width="0.8"/><circle cx="271.0" cy="247.0" r="3" fill="#c9a86a" stroke="#8a6f3c" stroke-width="0.8"/><circle cx="271.0" cy="269.0" r="3" fill="#c9a86a" stroke="#8a6f3c" stroke-width="0.8"/><circle cx="271.0" cy="291.0" r="3" fill="#c9a86a" stroke="#8a6f3c" stroke-width="0.8"/><circle cx="271.0" cy="313.0" r="3" fill="#c9a86a" stroke="#8a6f3c" stroke-width="0.8"/><circle cx="271.0" cy="335.0" r="3" fill="#c9a86a" stroke="#8a6f3c" stroke-width="0.8"/><circle cx="271.0" cy="357.0" r="3" fill="#c9a86a" stroke="#8a6f3c" stroke-width="0.8"/><circle cx="293.0" cy="71.0" r="3" fill="#c9a86a" stroke="#8a6f3c" stroke-width="0.8"/><circle cx="293.0" cy="93.0" r="3" fill="#c9a86a" stroke="#8a6f3c" stroke-width="0.8"/><circle cx="293.0" cy="115.0" r="3" fill="#c9a86a" stroke="#8a6f3c" stroke-width="0.8"/><circle cx="293.0" cy="137.0" r="3" fill="#c9a86a" stroke="#8a6f3c" stroke-width="0.8"/><circle cx="293.0" cy="159.0" r="3" fill="#c9a86a" stroke="#8a6f3c" stroke-width="0.8"/><circle cx="293.0" cy="181.0" r="3" fill="#c9a86a" stroke="#8a6f3c" stroke-width="0.8"/><circle cx="293.0" cy="203.0" r="3" fill="#c9a86a" stroke="#8a6f3c" stroke-width="0.8"/><circle cx="293.0" cy="225.0" r="3" fill="#c9a86a" stroke="#8a6f3c" stroke-width="0.8"/><circle cx="293.0" cy="247.0" r="3" fill="#c9a86a" stroke="#8a6f3c" stroke-width="0.8"/><circle cx="293.0" cy="269.0" r="3" fill="#c9a86a" stroke="#8a6f3c" stroke-width="0.8"/><circle cx="293.0" cy="291.0" r="3" fill="#c9a86a" stroke="#8a6f3c" stroke-width="0.8"/><circle cx="293.0" cy="313.0" r="3" fill="#c9a86a" stroke="#8a6f3c" stroke-width="0.8"/><circle cx="293.0" cy="335.0" r="3" fill="#c9a86a" stroke="#8a6f3c" stroke-width="0.8"/><circle cx="293.0" cy="357.0" r="3" fill="#c9a86a" stroke="#8a6f3c" stroke-width="0.8"/><circle cx="315.0" cy="71.0" r="3" fill="#c9a86a" stroke="#8a6f3c" stroke-width="0.8"/><circle cx="315.0" cy="93.0" r="3" fill="#c9a86a" stroke="#8a6f3c" stroke-width="0.8"/><circle cx="315.0" cy="115.0" r="3" fill="#c9a86a" stroke="#8a6f3c" stroke-width="0.8"/><circle cx="315.0" cy="137.0" r="3" fill="#c9a86a" stroke="#8a6f3c" stroke-width="0.8"/><circle cx="315.0" cy="159.0" r="3" fill="#c9a86a" stroke="#8a6f3c" stroke-width="0.8"/><circle cx="315.0" cy="181.0" r="3" fill="#c9a86a" stroke="#8a6f3c" stroke-width="0.8"/><circle cx="315.0" cy="203.0" r="3" fill="#c9a86a" stroke="#8a6f3c" stroke-width="0.8"/><circle cx="315.0" cy="225.0" r="3" fill="#c9a86a" stroke="#8a6f3c" stroke-width="0.8"/><circle cx="315.0" cy="247.0" r="3" fill="#c9a86a" stroke="#8a6f3c" stroke-width="0.8"/><circle cx="315.0" cy="269.0" r="3" fill="#c9a86a" stroke="#8a6f3c" stroke-width="0.8"/><circle cx="315.0" cy="291.0" r="3" fill="#c9a86a" stroke="#8a6f3c" stroke-width="0.8"/><circle cx="315.0" cy="313.0" r="3" fill="#c9a86a" stroke="#8a6f3c" stroke-width="0.8"/><circle cx="315.0" cy="335.0" r="3" fill="#c9a86a" stroke="#8a6f3c" stroke-width="0.8"/><circle cx="315.0" cy="357.0" r="3" fill="#c9a86a" stroke="#8a6f3c" stroke-width="0.8"/><text class="n" x="51.0" y="52" text-anchor="middle">L</text><text class="n" x="73.0" y="52" text-anchor="middle">K</text><text class="n" x="95.0" y="52" text-anchor="middle">J</text><text class="n" x="117.0" y="52" text-anchor="middle">I</text><text class="n" x="139.0" y="52" text-anchor="middle">H</text><text class="n" x="161.0" y="52" text-anchor="middle">G</text><text class="n" x="183.0" y="52" text-anchor="middle">F</text><text class="n" x="205.0" y="52" text-anchor="middle">E</text><text class="n" x="227.0" y="52" text-anchor="middle">D</text><text class="n" x="249.0" y="52" text-anchor="middle">C</text><text class="n" x="271.0" y="52" text-anchor="middle">B</text><text class="n" x="293.0" y="52" text-anchor="middle">A</text><text class="n" x="315.0" y="52" text-anchor="middle"></text><text class="n" x="32" y="71.0" text-anchor="end" dominant-baseline="central">002</text><text class="n" x="32" y="93.0" text-anchor="end" dominant-baseline="central">003</text><text class="n" x="32" y="115.0" text-anchor="end" dominant-baseline="central">004</text><text class="n" x="32" y="137.0" text-anchor="end" dominant-baseline="central">005</text><text class="n" x="32" y="159.0" text-anchor="end" dominant-baseline="central">006</text><text class="n" x="32" y="181.0" text-anchor="end" dominant-baseline="central">007</text><text class="n" x="32" y="203.0" text-anchor="end" dominant-baseline="central">008</text><text class="n" x="32" y="225.0" text-anchor="end" dominant-baseline="central">009</text><text class="n" x="32" y="247.0" text-anchor="end" dominant-baseline="central">010</text><text class="n" x="32" y="269.0" text-anchor="end" dominant-baseline="central">011</text><text class="n" x="32" y="291.0" text-anchor="end" dominant-baseline="central">012</text><text class="n" x="32" y="313.0" text-anchor="end" dominant-baseline="central">013</text><text class="n" x="32" y="335.0" text-anchor="end" dominant-baseline="central">014</text><text class="n" x="32" y="357.0" text-anchor="end" dominant-baseline="central">015</text><line x1="51.0" y1="71.0" x2="51.0" y2="357.0" stroke="#DC3545" stroke-width="4" stroke-dasharray="6 4" opacity="0.7"/><line x1="139.0" y1="71.0" x2="139.0" y2="357.0" stroke="#4a4844" stroke-width="4" stroke-dasharray="6 4" opacity="0.7"/><path d="M51.0 137.0 L316 137.0 Q356 137.0 396 214" fill="none" stroke="#DC3545" stroke-width="3" opacity="0.9"/><circle cx="51.0" cy="137.0" r="3.5" fill="#1a1a18"/><path d="M139.0 137.0 L316 137.0 Q356 137.0 396 214" fill="none" stroke="#4a4844" stroke-width="3" opacity="0.9"/><circle cx="139.0" cy="137.0" r="3.5" fill="#1a1a18"/><path d="M51.0 159.0 L316 159.0 Q356 159.0 396 214" fill="none" stroke="#DC3545" stroke-width="3" opacity="0.9"/><circle cx="51.0" cy="159.0" r="3.5" fill="#1a1a18"/><path d="M139.0 159.0 L316 159.0 Q356 159.0 396 214" fill="none" stroke="#4a4844" stroke-width="3" opacity="0.9"/><circle cx="139.0" cy="159.0" r="3.5" fill="#1a1a18"/><path d="M51.0 181.0 L316 181.0 Q356 181.0 396 214" fill="none" stroke="#DC3545" stroke-width="3" opacity="0.9"/><circle cx="51.0" cy="181.0" r="3.5" fill="#1a1a18"/><path d="M139.0 181.0 L316 181.0 Q356 181.0 396 214" fill="none" stroke="#4a4844" stroke-width="3" opacity="0.9"/><circle cx="139.0" cy="181.0" r="3.5" fill="#1a1a18"/><path d="M95.0 269.0 L316 269.0 Q356 269.0 396 214" fill="none" stroke="#2E9E5B" stroke-width="3" opacity="0.9"/><circle cx="95.0" cy="269.0" r="3.5" fill="#1a1a18"/><path d="M396 214 L670 214" stroke="#1a1a18" stroke-width="9" stroke-linecap="round"/><rect x="388" y="205" width="44" height="18" rx="6" fill="#2E9E5B" opacity="0.85"/><text class="t" x="410" y="244" text-anchor="middle">heat-shrink (or tape)</text><text class="t" x="410" y="260" text-anchor="middle">round all 7 wires</text><circle cx="205.0" cy="115.0" r="5" fill="none" stroke="#1a1a18" stroke-width="2"/><circle cx="205.0" cy="291.0" r="5" fill="none" stroke="#1a1a18" stroke-width="2"/><path d="M205.0 115.0 L205.0 291.0" stroke="#b08a3e" stroke-width="3" stroke-dasharray="7 4"/><path d="M202.0 115.0 L202.0 291.0" stroke="#b08a3e" stroke-width="3"/><text class="n" x="215.0" y="115.0" dominant-baseline="central">E004</text><text class="n" x="215.0" y="291.0" dominant-baseline="central">E012</text><text class="t" x="215.0" y="195.0">bare wire: down through E004,</text><text class="t" x="215.0" y="211.0">under the bundle, up through E012,</text><text class="t" x="215.0" y="227.0">twist the two ends together on top</text><text class="h" x="40" y="402">Where the wires cross column E, they get tied down. A tug then pulls on the lash, not on the solder joints.</text><text class="t" x="40" y="424">Adapter out. 1) gather the seven wires where they pass column E, slide 3 cm of heat-shrink over them and shrink it (or wrap tape).</text><text class="t" x="40" y="442">2) 10 cm of bare wire: push one end down through E004, bring it across the underside, up through E012, over the bundle, twist the ends. Trim.</text></svg>
